<svg width="17" height="17" viewBox="0 0 17 17" fill="none" xmlns="http://www.w3.org/2000/svg">
<g clip-path="url(#clip0_103_1497)">
<path fill-rule="evenodd" clip-rule="evenodd" d="M3.31875 11.95C3.36532 11.8879 3.42572 11.8375 3.49514 11.8028C3.56457 11.7681 3.64113 11.75 3.71875 11.75H6.21875C6.35136 11.75 6.47854 11.8027 6.5723 11.8964C6.66607 11.9902 6.71875 12.1174 6.71875 12.25C6.71875 12.3826 6.66607 12.5098 6.5723 12.6036C6.47854 12.6973 6.35136 12.75 6.21875 12.75H3.96875L1.71875 15.75H14.7188L12.4688 12.75H10.2188C10.0861 12.75 9.95896 12.6973 9.8652 12.6036C9.77143 12.5098 9.71875 12.3826 9.71875 12.25C9.71875 12.1174 9.77143 11.9902 9.8652 11.8964C9.95896 11.8027 10.0861 11.75 10.2188 11.75H12.7188C12.7964 11.75 12.8729 11.7681 12.9424 11.8028C13.0118 11.8375 13.0722 11.8879 13.1187 11.95L16.1187 15.95C16.1745 16.0243 16.2084 16.1126 16.2167 16.2051C16.2251 16.2976 16.2075 16.3906 16.166 16.4736C16.1244 16.5567 16.0606 16.6265 15.9816 16.6753C15.9026 16.7241 15.8116 16.75 15.7188 16.75H0.71875C0.625894 16.75 0.534873 16.7241 0.455885 16.6753C0.376897 16.6265 0.313063 16.5567 0.271537 16.4736C0.23001 16.3906 0.212432 16.2976 0.220771 16.2051C0.22911 16.1126 0.263037 16.0243 0.31875 15.95L3.31875 11.95Z" fill="#ABABAB"/>
<path fill-rule="evenodd" clip-rule="evenodd" d="M8.21875 1.75C7.82478 1.75 7.43468 1.82759 7.0707 1.97836C6.70672 2.12912 6.37601 2.3501 6.09743 2.62868C5.81885 2.90725 5.59788 3.23797 5.44711 3.60195C5.29635 3.96592 5.21875 4.35603 5.21875 4.75C5.21875 5.14396 5.29635 5.53407 5.44711 5.89805C5.59788 6.26202 5.81885 6.59274 6.09743 6.87132C6.37601 7.14989 6.70672 7.37087 7.0707 7.52163C7.43468 7.6724 7.82478 7.75 8.21875 7.75C9.0144 7.75 9.77746 7.43393 10.3401 6.87132C10.9027 6.30871 11.2188 5.54564 11.2188 4.75C11.2188 3.95435 10.9027 3.19128 10.3401 2.62868C9.77746 2.06607 9.0144 1.75 8.21875 1.75ZM4.21875 4.75C4.21882 3.98022 4.44101 3.22682 4.85864 2.58019C5.27628 1.93356 5.87163 1.42117 6.57325 1.1045C7.27488 0.787837 8.05297 0.680348 8.81417 0.794932C9.57537 0.909517 10.2873 1.24131 10.8646 1.75049C11.4419 2.25968 11.8601 2.92463 12.0688 3.66555C12.2776 4.40647 12.2681 5.1919 12.0416 5.92758C11.8151 6.66326 11.381 7.31795 10.7916 7.81309C10.2022 8.30822 9.48249 8.62277 8.71875 8.719V14.25C8.71875 14.3826 8.66607 14.5098 8.5723 14.6035C8.47854 14.6973 8.35136 14.75 8.21875 14.75C8.08614 14.75 7.95897 14.6973 7.8652 14.6035C7.77143 14.5098 7.71875 14.3826 7.71875 14.25V8.72C6.75172 8.59816 5.86244 8.12743 5.21797 7.39623C4.57349 6.66503 4.21817 5.72368 4.21875 4.749V4.75Z" fill="#ABABAB"/>
</g>
<defs>
<clipPath id="clip0_103_1497">
<rect width="16" height="16" fill="white" transform="translate(0.21875 0.75)"/>
</clipPath>
</defs>
</svg>
