<svg width="21" height="20" viewBox="0 0 21 20" fill="none" xmlns="http://www.w3.org/2000/svg">
<rect x="0.430176" width="20" height="20" rx="5" fill="#E1E8FF"/>
<path d="M12.9062 4H6.90625C6.50843 4 6.12689 4.15804 5.84559 4.43934C5.56429 4.72064 5.40625 5.10218 5.40625 5.5V14.5C5.40625 14.8978 5.56429 15.2794 5.84559 15.5607C6.12689 15.842 6.50843 16 6.90625 16H12.9062C13.3041 16 13.6856 15.842 13.9669 15.5607C14.2482 15.2794 14.4062 14.8978 14.4062 14.5V5.5C14.4062 5.10218 14.2482 4.72064 13.9669 4.43934C13.6856 4.15804 13.3041 4 12.9062 4ZM7.65625 7H12.1562C12.2557 7 12.3511 7.03951 12.4214 7.10984C12.4917 7.18016 12.5312 7.27554 12.5312 7.375C12.5312 7.47446 12.4917 7.56984 12.4214 7.64016C12.3511 7.71049 12.2557 7.75 12.1562 7.75H7.65625C7.55679 7.75 7.46141 7.71049 7.39109 7.64016C7.32076 7.56984 7.28125 7.47446 7.28125 7.375C7.28125 7.27554 7.32076 7.18016 7.39109 7.10984C7.46141 7.03951 7.55679 7 7.65625 7ZM7.28125 8.875C7.28125 8.77554 7.32076 8.68016 7.39109 8.60984C7.46141 8.53951 7.55679 8.5 7.65625 8.5H12.1562C12.2557 8.5 12.3511 8.53951 12.4214 8.60984C12.4917 8.68016 12.5312 8.77554 12.5312 8.875C12.5312 8.97446 12.4917 9.06984 12.4214 9.14016C12.3511 9.21049 12.2557 9.25 12.1562 9.25H7.65625C7.55679 9.25 7.46141 9.21049 7.39109 9.14016C7.32076 9.06984 7.28125 8.97446 7.28125 8.875ZM7.65625 10H12.1562C12.2557 10 12.3511 10.0395 12.4214 10.1098C12.4917 10.1802 12.5312 10.2755 12.5312 10.375C12.5312 10.4745 12.4917 10.5698 12.4214 10.6402C12.3511 10.7105 12.2557 10.75 12.1562 10.75H7.65625C7.55679 10.75 7.46141 10.7105 7.39109 10.6402C7.32076 10.5698 7.28125 10.4745 7.28125 10.375C7.28125 10.2755 7.32076 10.1802 7.39109 10.1098C7.46141 10.0395 7.55679 10 7.65625 10ZM7.65625 11.5H9.90625C10.0057 11.5 10.1011 11.5395 10.1714 11.6098C10.2417 11.6802 10.2812 11.7755 10.2812 11.875C10.2812 11.9745 10.2417 12.0698 10.1714 12.1402C10.1011 12.2105 10.0057 12.25 9.90625 12.25H7.65625C7.55679 12.25 7.46141 12.2105 7.39109 12.1402C7.32076 12.0698 7.28125 11.9745 7.28125 11.875C7.28125 11.7755 7.32076 11.6802 7.39109 11.6098C7.46141 11.5395 7.55679 11.5 7.65625 11.5Z" fill="#003CFF"/>
</svg>
