<svg width="13" height="13" viewBox="0 0 13 13" fill="none" xmlns="http://www.w3.org/2000/svg">
<g clip-path="url(#clip0_103_1518)">
<path d="M9.59375 2.75C9.69321 2.75 9.78859 2.78951 9.85892 2.85984C9.92924 2.93016 9.96875 3.02554 9.96875 3.125C9.96875 3.22446 9.92924 3.31984 9.85892 3.39016C9.78859 3.46049 9.69321 3.5 9.59375 3.5H5.84375C5.74429 3.5 5.64891 3.46049 5.57859 3.39016C5.50826 3.31984 5.46875 3.22446 5.46875 3.125C5.46875 3.02554 5.50826 2.93016 5.57859 2.85984C5.64891 2.78951 5.74429 2.75 5.84375 2.75H9.59375ZM9.59375 5C9.69321 5 9.78859 5.03951 9.85892 5.10984C9.92924 5.18016 9.96875 5.27554 9.96875 5.375C9.96875 5.47446 9.92924 5.56984 9.85892 5.64016C9.78859 5.71049 9.69321 5.75 9.59375 5.75H5.84375C5.74429 5.75 5.64891 5.71049 5.57859 5.64016C5.50826 5.56984 5.46875 5.47446 5.46875 5.375C5.46875 5.27554 5.50826 5.18016 5.57859 5.10984C5.64891 5.03951 5.74429 5 5.84375 5H9.59375ZM9.96875 7.625C9.96875 7.52554 9.92924 7.43016 9.85892 7.35983C9.78859 7.28951 9.69321 7.25 9.59375 7.25H5.84375C5.74429 7.25 5.64891 7.28951 5.57859 7.35983C5.50826 7.43016 5.46875 7.52554 5.46875 7.625C5.46875 7.72446 5.50826 7.81984 5.57859 7.89017C5.64891 7.96049 5.74429 8 5.84375 8H9.59375C9.69321 8 9.78859 7.96049 9.85892 7.89017C9.92924 7.81984 9.96875 7.72446 9.96875 7.625ZM9.59375 9.5C9.69321 9.5 9.78859 9.53951 9.85892 9.60983C9.92924 9.68016 9.96875 9.77554 9.96875 9.875C9.96875 9.97446 9.92924 10.0698 9.85892 10.1402C9.78859 10.2105 9.69321 10.25 9.59375 10.25H5.84375C5.74429 10.25 5.64891 10.2105 5.57859 10.1402C5.50826 10.0698 5.46875 9.97446 5.46875 9.875C5.46875 9.77554 5.50826 9.68016 5.57859 9.60983C5.64891 9.53951 5.74429 9.5 5.84375 9.5H9.59375Z" fill="#ABABAB"/>
<path d="M12.2188 2C12.2188 1.60218 12.0607 1.22064 11.7794 0.93934C11.4981 0.658035 11.1166 0.5 10.7188 0.5H1.71875C1.32093 0.5 0.939394 0.658035 0.65809 0.93934C0.376785 1.22064 0.21875 1.60218 0.21875 2L0.21875 11C0.21875 11.3978 0.376785 11.7794 0.65809 12.0607C0.939394 12.342 1.32093 12.5 1.71875 12.5H10.7188C11.1166 12.5 11.4981 12.342 11.7794 12.0607C12.0607 11.7794 12.2188 11.3978 12.2188 11V2ZM3.21875 1.25V11.75H1.71875C1.51984 11.75 1.32907 11.671 1.18842 11.5303C1.04777 11.3897 0.96875 11.1989 0.96875 11V2C0.96875 1.80109 1.04777 1.61032 1.18842 1.46967C1.32907 1.32902 1.51984 1.25 1.71875 1.25H3.21875ZM3.96875 1.25H10.7188C10.9177 1.25 11.1084 1.32902 11.2491 1.46967C11.3897 1.61032 11.4688 1.80109 11.4688 2V11C11.4688 11.1989 11.3897 11.3897 11.2491 11.5303C11.1084 11.671 10.9177 11.75 10.7188 11.75H3.96875V1.25Z" fill="#ABABAB"/>
</g>
<defs>
<clipPath id="clip0_103_1518">
<rect width="12" height="12" fill="white" transform="translate(0.21875 0.5)"/>
</clipPath>
</defs>
</svg>
