<svg width="13" height="12" viewBox="0 0 13 12" fill="none" xmlns="http://www.w3.org/2000/svg">
<path d="M3.99268 0.75V6.75H0.992676V0.75H3.99268ZM0.992676 0C0.793763 0 0.602998 0.0790176 0.462346 0.21967C0.321693 0.360322 0.242676 0.551088 0.242676 0.75L0.242676 6.75C0.242676 6.94891 0.321693 7.13968 0.462346 7.28033C0.602998 7.42098 0.793763 7.5 0.992676 7.5H3.99268C4.19159 7.5 4.38235 7.42098 4.52301 7.28033C4.66366 7.13968 4.74268 6.94891 4.74268 6.75V0.75C4.74268 0.551088 4.66366 0.360322 4.52301 0.21967C4.38235 0.0790176 4.19159 0 3.99268 0L0.992676 0ZM10.7427 1.5V5.25H6.99268V1.5H10.7427ZM6.99268 0.75C6.79376 0.75 6.603 0.829018 6.46235 0.96967C6.32169 1.11032 6.24268 1.30109 6.24268 1.5V5.25C6.24268 5.44891 6.32169 5.63968 6.46235 5.78033C6.603 5.92098 6.79376 6 6.99268 6H10.7427C10.9416 6 11.1324 5.92098 11.273 5.78033C11.4137 5.63968 11.4927 5.44891 11.4927 5.25V1.5C11.4927 1.30109 11.4137 1.11032 11.273 0.96967C11.1324 0.829018 10.9416 0.75 10.7427 0.75H6.99268ZM3.99268 9.75V11.25H2.49268V9.75H3.99268ZM2.49268 9C2.29376 9 2.103 9.07902 1.96235 9.21967C1.82169 9.36032 1.74268 9.55109 1.74268 9.75V11.25C1.74268 11.4489 1.82169 11.6397 1.96235 11.7803C2.103 11.921 2.29376 12 2.49268 12H3.99268C4.19159 12 4.38235 11.921 4.52301 11.7803C4.66366 11.6397 4.74268 11.4489 4.74268 11.25V9.75C4.74268 9.55109 4.66366 9.36032 4.52301 9.21967C4.38235 9.07902 4.19159 9 3.99268 9H2.49268ZM11.4927 8.25V9.75H6.99268V8.25H11.4927ZM6.99268 7.5C6.79376 7.5 6.603 7.57902 6.46235 7.71967C6.32169 7.86032 6.24268 8.05109 6.24268 8.25V9.75C6.24268 9.94891 6.32169 10.1397 6.46235 10.2803C6.603 10.421 6.79376 10.5 6.99268 10.5H11.4927C11.6916 10.5 11.8824 10.421 12.023 10.2803C12.1637 10.1397 12.2427 9.94891 12.2427 9.75V8.25C12.2427 8.05109 12.1637 7.86032 12.023 7.71967C11.8824 7.57902 11.6916 7.5 11.4927 7.5H6.99268Z" fill="#ABABAB"/>
</svg>
