<svg width="17" height="16" viewBox="0 0 17 16" fill="none" xmlns="http://www.w3.org/2000/svg">
<path d="M12.0725 10.344C13.0408 9.02269 13.4745 7.38449 13.2868 5.75715C13.0991 4.12981 12.3039 2.63334 11.0603 1.56713C9.8166 0.500921 8.21624 -0.0563964 6.57932 0.00667671C4.94241 0.0697499 3.38967 0.748562 2.23176 1.90731C1.07384 3.06605 0.396138 4.61928 0.334236 6.25623C0.272335 7.89319 0.830797 9.49316 1.8979 10.736C2.96499 11.9789 4.46203 12.7731 6.08951 12.9596C7.71698 13.1461 9.35487 12.7112 10.6755 11.742H10.6745C10.7045 11.782 10.7365 11.82 10.7725 11.857L14.6225 15.707C14.81 15.8946 15.0644 16.0001 15.3296 16.0002C15.5949 16.0003 15.8493 15.895 16.037 15.7075C16.2246 15.52 16.3301 15.2656 16.3302 15.0004C16.3303 14.7351 16.225 14.4806 16.0375 14.293L12.1875 10.443C12.1517 10.4068 12.1133 10.3734 12.0725 10.343V10.344ZM12.3305 6.5C12.3305 7.22227 12.1882 7.93747 11.9118 8.60476C11.6354 9.27205 11.2303 9.87837 10.7196 10.3891C10.2089 10.8998 9.60254 11.3049 8.93525 11.5813C8.26796 11.8577 7.55276 12 6.83049 12C6.10822 12 5.39302 11.8577 4.72573 11.5813C4.05844 11.3049 3.45212 10.8998 2.9414 10.3891C2.43068 9.87837 2.02555 9.27205 1.74915 8.60476C1.47275 7.93747 1.33049 7.22227 1.33049 6.5C1.33049 5.04131 1.90995 3.64236 2.9414 2.61091C3.97285 1.57946 5.3718 1 6.83049 1C8.28918 1 9.68812 1.57946 10.7196 2.61091C11.751 3.64236 12.3305 5.04131 12.3305 6.5Z" fill="#1D1929"/>
</svg>
